<mxfile host="app.diagrams.net" agent="Mozilla/5.0 (Macintosh; Intel Mac OS X 10.15; rv:137.0) Gecko/20100101 Firefox/137.0" version="26.2.13">
  <diagram name="Page-1" id="e1KXP9TjudIc2og_aZmT">
    <mxGraphModel dx="970" dy="722" grid="1" gridSize="10" guides="1" tooltips="1" connect="1" arrows="1" fold="1" page="1" pageScale="1" pageWidth="850" pageHeight="1100" math="0" shadow="0">
      <root>
        <mxCell id="0" />
        <mxCell id="1" parent="0" />
        <mxCell id="WhyDH0_DP49OVpkmvhG3-3" value="" style="rounded=0;whiteSpace=wrap;html=1;" vertex="1" parent="1">
          <mxGeometry x="80" y="160" width="320" height="320" as="geometry" />
        </mxCell>
        <mxCell id="WhyDH0_DP49OVpkmvhG3-5" value="" style="rounded=0;whiteSpace=wrap;html=1;" vertex="1" parent="1">
          <mxGeometry x="80" y="240" width="40" height="240" as="geometry" />
        </mxCell>
        <mxCell id="WhyDH0_DP49OVpkmvhG3-6" value="" style="rounded=0;whiteSpace=wrap;html=1;" vertex="1" parent="1">
          <mxGeometry x="120" y="280" width="40" height="200" as="geometry" />
        </mxCell>
        <mxCell id="WhyDH0_DP49OVpkmvhG3-7" value="" style="rounded=0;whiteSpace=wrap;html=1;" vertex="1" parent="1">
          <mxGeometry x="320" y="280" width="40" height="200" as="geometry" />
        </mxCell>
        <mxCell id="WhyDH0_DP49OVpkmvhG3-8" value="" style="rounded=0;whiteSpace=wrap;html=1;" vertex="1" parent="1">
          <mxGeometry x="360" y="210" width="40" height="270" as="geometry" />
        </mxCell>
        <mxCell id="WhyDH0_DP49OVpkmvhG3-10" value="" style="rounded=0;whiteSpace=wrap;html=1;" vertex="1" parent="1">
          <mxGeometry x="280" y="330" width="40" height="150" as="geometry" />
        </mxCell>
        <mxCell id="WhyDH0_DP49OVpkmvhG3-11" value="" style="rounded=0;whiteSpace=wrap;html=1;" vertex="1" parent="1">
          <mxGeometry x="160" y="310" width="40" height="170" as="geometry" />
        </mxCell>
        <mxCell id="WhyDH0_DP49OVpkmvhG3-24" value="" style="group" vertex="1" connectable="0" parent="1">
          <mxGeometry x="410" y="160" width="320" height="320" as="geometry" />
        </mxCell>
        <mxCell id="WhyDH0_DP49OVpkmvhG3-23" value="" style="rounded=0;whiteSpace=wrap;html=1;" vertex="1" parent="WhyDH0_DP49OVpkmvhG3-24">
          <mxGeometry width="320" height="320" as="geometry" />
        </mxCell>
        <mxCell id="WhyDH0_DP49OVpkmvhG3-22" value="" style="group" vertex="1" connectable="0" parent="WhyDH0_DP49OVpkmvhG3-24">
          <mxGeometry y="50" width="320" height="270" as="geometry" />
        </mxCell>
        <mxCell id="WhyDH0_DP49OVpkmvhG3-14" value="" style="rounded=0;whiteSpace=wrap;html=1;" vertex="1" parent="WhyDH0_DP49OVpkmvhG3-22">
          <mxGeometry y="130" width="40" height="140" as="geometry" />
        </mxCell>
        <mxCell id="WhyDH0_DP49OVpkmvhG3-15" value="" style="rounded=0;whiteSpace=wrap;html=1;" vertex="1" parent="WhyDH0_DP49OVpkmvhG3-22">
          <mxGeometry x="40" y="170" width="40" height="100" as="geometry" />
        </mxCell>
        <mxCell id="WhyDH0_DP49OVpkmvhG3-16" value="" style="rounded=0;whiteSpace=wrap;html=1;" vertex="1" parent="WhyDH0_DP49OVpkmvhG3-22">
          <mxGeometry x="240" y="190" width="40" height="80" as="geometry" />
        </mxCell>
        <mxCell id="WhyDH0_DP49OVpkmvhG3-17" value="" style="rounded=0;whiteSpace=wrap;html=1;" vertex="1" parent="WhyDH0_DP49OVpkmvhG3-22">
          <mxGeometry x="280" y="140" width="40" height="130" as="geometry" />
        </mxCell>
        <mxCell id="WhyDH0_DP49OVpkmvhG3-18" value="" style="rounded=0;whiteSpace=wrap;html=1;" vertex="1" parent="WhyDH0_DP49OVpkmvhG3-22">
          <mxGeometry x="160" y="240" width="40" height="30" as="geometry" />
        </mxCell>
        <mxCell id="WhyDH0_DP49OVpkmvhG3-19" value="" style="rounded=0;whiteSpace=wrap;html=1;" vertex="1" parent="WhyDH0_DP49OVpkmvhG3-22">
          <mxGeometry x="200" y="220" width="40" height="50" as="geometry" />
        </mxCell>
        <mxCell id="WhyDH0_DP49OVpkmvhG3-20" value="" style="rounded=0;whiteSpace=wrap;html=1;" vertex="1" parent="WhyDH0_DP49OVpkmvhG3-22">
          <mxGeometry x="80" y="200" width="40" height="70" as="geometry" />
        </mxCell>
        <mxCell id="WhyDH0_DP49OVpkmvhG3-21" value="" style="rounded=0;whiteSpace=wrap;html=1;" vertex="1" parent="WhyDH0_DP49OVpkmvhG3-22">
          <mxGeometry x="120" y="220" width="40" height="50" as="geometry" />
        </mxCell>
        <mxCell id="WhyDH0_DP49OVpkmvhG3-27" value="ETH / BTC" style="text;html=1;align=center;verticalAlign=middle;whiteSpace=wrap;rounded=0;" vertex="1" parent="1">
          <mxGeometry x="520" y="160" width="80" height="30" as="geometry" />
        </mxCell>
        <mxCell id="WhyDH0_DP49OVpkmvhG3-28" value="USDT / DAI" style="text;html=1;align=center;verticalAlign=middle;whiteSpace=wrap;rounded=0;" vertex="1" parent="1">
          <mxGeometry x="200" y="160" width="80" height="30" as="geometry" />
        </mxCell>
        <mxCell id="WhyDH0_DP49OVpkmvhG3-29" value="" style="rounded=0;whiteSpace=wrap;html=1;" vertex="1" parent="1">
          <mxGeometry x="200" y="370" width="40" height="110" as="geometry" />
        </mxCell>
        <mxCell id="WhyDH0_DP49OVpkmvhG3-30" value="" style="rounded=0;whiteSpace=wrap;html=1;" vertex="1" parent="1">
          <mxGeometry x="240" y="350" width="40" height="130" as="geometry" />
        </mxCell>
      </root>
    </mxGraphModel>
  </diagram>
</mxfile>
